<?xml version="1.0" encoding="utf-8"?>
<!-- Generator: Adobe Illustrator 21.0.0, SVG Export Plug-In . SVG Version: 6.00 Build 0)  -->
<svg version="1.1" id="Layer_1" xmlns="http://www.w3.org/2000/svg" xmlns:xlink="http://www.w3.org/1999/xlink" x="0px" y="0px"
	 viewBox="0 0 206 50" style="enable-background:new 0 0 206 50;" xml:space="preserve">
<style type="text/css">
	.st0{fill:#00B3E3;}
</style>
<g>
	<g>
		<path class="st0" d="M145.3,41.1c-1,0-1.8-0.8-1.8-1.9c0-1.3,0.8-1.9,1.7-1.9c0.7,0,1.2,0.4,1.4,0.8h0.6c-0.2-0.6-0.8-1.3-2.1-1.3
			c-1.3,0-2.3,1-2.3,2.4c0,1.4,0.9,2.4,2.3,2.4c1.1,0,1.7-0.6,2.1-1.4h-0.6C146.6,40.7,146.1,41.1,145.3,41.1z M149.6,38.1
			c-0.9,0-1.7,0.7-1.7,1.7c0,1,0.7,1.7,1.7,1.7c1,0,1.7-0.8,1.7-1.7C151.3,38.9,150.6,38.1,149.6,38.1z M149.6,41.1
			c-0.6,0-1.1-0.5-1.1-1.2c0-0.7,0.5-1.2,1.1-1.2c0.7,0,1.1,0.6,1.1,1.2C150.8,40.5,150.3,41.1,149.6,41.1z M153.7,39.7
			c0.4-0.1,0.5-0.4,0.5-0.6c0-0.5-0.4-0.8-1-0.8H152v3.2h1.3c0.7,0,1.1-0.4,1.1-1C154.5,40.1,154.3,39.8,153.7,39.7z M152.5,38.7
			h0.7c0.3,0,0.6,0.1,0.6,0.4c0,0.3-0.2,0.4-0.6,0.4h-0.6V38.7z M153.4,41h-0.9v-1h0.8c0.5,0,0.7,0.2,0.7,0.5
			C154,40.7,153.8,41,153.4,41z M156.9,38.1c-0.6,0-1,0.3-1.2,0.6h0v-0.5h-0.5V43h0.5v-2h0c0.2,0.3,0.6,0.5,1.2,0.5
			c0.9,0,1.6-0.7,1.6-1.7C158.5,39,157.9,38.1,156.9,38.1z M156.8,41.1c-0.6,0-1.1-0.5-1.1-1.2c0-0.8,0.5-1.3,1.1-1.3
			c0.8,0,1.2,0.6,1.2,1.2C157.9,40.4,157.6,41.1,156.8,41.1z M160.5,38.1c-1,0-1.6,0.8-1.6,1.7c0,1,0.7,1.8,1.7,1.8
			c0.7,0,1.2-0.5,1.4-0.9h-0.6c-0.2,0.2-0.4,0.4-0.8,0.4c-0.6,0-1.1-0.5-1.1-1.1h2.6c0,0,0-0.1,0-0.2
			C162.1,39.1,161.7,38.1,160.5,38.1z M159.5,39.5c0-0.5,0.4-1,1-1c0.6,0,1,0.5,1,1H159.5z M165.5,38.2l-0.8,2
			c-0.1,0.2-0.1,0.4-0.2,0.5h0c0-0.2-0.1-0.4-0.2-0.5l-0.8-2h-0.5l-0.6,3.2h0.5l0.3-1.8c0-0.2,0.1-0.5,0.1-0.7h0
			c0.1,0.2,0.1,0.5,0.2,0.7l0.7,1.8h0.4l0.7-1.8c0.1-0.2,0.2-0.5,0.2-0.7h0c0,0.2,0.1,0.5,0.1,0.7l0.3,1.8h0.5l-0.6-3.2H165.5z
			 M168.6,38.1c-1,0-1.6,0.8-1.6,1.7c0,1,0.7,1.8,1.7,1.8c0.7,0,1.2-0.5,1.4-0.9h-0.6c-0.2,0.2-0.4,0.4-0.8,0.4
			c-0.6,0-1.1-0.5-1.1-1.1h2.6c0,0,0-0.1,0-0.2C170.1,39.1,169.7,38.1,168.6,38.1z M167.6,39.5c0-0.5,0.4-1,1-1c0.6,0,1,0.5,1,1
			H167.6z M173.1,39.5h-1.7v-1.3h-0.5v3.2h0.5V40h1.7v1.4h0.5v-3.2h-0.5V39.5z M176.7,39.5H175v-1.3h-0.5v3.2h0.5V40h1.7v1.4h0.5
			v-3.2h-0.5V39.5z M179.6,38.1c-0.9,0-1.7,0.7-1.7,1.7c0,1,0.7,1.7,1.7,1.7c1,0,1.7-0.8,1.7-1.7C181.3,38.9,180.6,38.1,179.6,38.1z
			 M179.6,41.1c-0.6,0-1.1-0.5-1.1-1.2c0-0.7,0.5-1.2,1.1-1.2c0.7,0,1.1,0.6,1.1,1.2C180.8,40.5,180.3,41.1,179.6,41.1z M182.2,40.7
			c-0.2,0-0.4,0.2-0.4,0.4s0.2,0.4,0.4,0.4s0.4-0.2,0.4-0.4S182.4,40.7,182.2,40.7z M186.2,39L186.2,39c0.4-0.2,0.7-0.5,0.7-1
			c0-0.7-0.5-1.2-1.5-1.2h-1v4.5h1.3c0.8,0,1.5-0.4,1.5-1.3C187.2,39.6,186.9,39.1,186.2,39z M185,37.4h0.4c0.5,0,0.9,0.2,0.9,0.7
			c0,0.4-0.3,0.7-0.9,0.7H185V37.4z M185.8,40.9H185v-1.6h0.7c0.6,0,1,0.3,1,0.8C186.7,40.6,186.4,40.9,185.8,40.9z M189.4,41.1
			c-0.7,0-1.1-0.5-1.1-1.2c0-0.8,0.5-1.2,1.1-1.2c0.4,0,0.7,0.2,0.8,0.5h0.6c-0.1-0.4-0.5-0.9-1.4-0.9c-1,0-1.7,0.8-1.7,1.7
			c0,1,0.7,1.7,1.7,1.7c0.9,0,1.3-0.5,1.4-1h-0.6C190.2,40.8,189.9,41.1,189.4,41.1z M192.9,38.1c-1,0-1.6,0.8-1.6,1.7
			c0,1,0.7,1.8,1.7,1.8c0.7,0,1.2-0.5,1.4-0.9h-0.6c-0.2,0.2-0.4,0.4-0.8,0.4c-0.6,0-1.1-0.5-1.1-1.1h2.6c0,0,0-0.1,0-0.2
			C194.4,39.1,194,38.1,192.9,38.1z M191.8,39.5c0-0.5,0.4-1,1-1c0.6,0,1,0.5,1,1H191.8z M197.3,38.2h-2.2v3.2h0.5v-2.7h1.7V38.2z
			 M200.3,38.2h-2.2l-0.1,1.3c-0.1,1.1-0.4,1.4-0.8,1.4h-0.1v1.5h0.5v-1h2.6v1h0.5V41h-0.5V38.2z M199.8,41h-1.7
			c0.2-0.3,0.4-0.7,0.4-1.5l0.1-0.8h1.2V41z M203.9,38.7L203.9,38.7c-0.2-0.3-0.6-0.6-1.1-0.6c-0.9,0-1.6,0.7-1.6,1.7
			c0,1,0.8,1.7,1.6,1.7c0.5,0,0.9-0.3,1.1-0.5h0v0.4h0.5v-3.2h-0.5V38.7z M202.8,41.1c-0.8,0-1.1-0.6-1.1-1.2c0-0.6,0.4-1.2,1.2-1.2
			c0.6,0,1.1,0.5,1.1,1.3C203.9,40.6,203.4,41.1,202.8,41.1z M205.6,40.7c-0.2,0-0.4,0.2-0.4,0.4s0.2,0.4,0.4,0.4
			c0.2,0,0.4-0.2,0.4-0.4S205.8,40.7,205.6,40.7z M114.9,14.3c-1.4,0-3.2,0.7-4,1.8l-0.2,0.2l-0.2-0.2l-0.4-1.5H107v17.2h3.6V21.5
			c0.1-2.1,1.8-3.9,4-3.9c2.4,0,3.5,1.3,3.6,3.7v10.6h3.6V21.3C121.8,17.3,119.3,14.3,114.9,14.3z M132.4,14.3c-4.7,0-8.8,3.7-8.8,9
			c0,5.3,4.1,9,8.8,9c4.7,0,8.8-3.7,8.8-9C141.2,18,137.1,14.3,132.4,14.3z M132.4,29c-3.4,0-5.2-2.6-5.2-5.7c0-3.1,1.8-5.7,5.2-5.7
			c3.4,0,5.2,2.6,5.2,5.7C137.6,26.4,135.8,29,132.4,29z M78.8,14.3c-4.7,0-8.8,3.7-8.8,9v13.9h3.6v-6.6c1.5,1.1,3.3,1.7,5.3,1.7
			c4.7,0,8.8-3.7,8.8-9C87.6,18,83.5,14.3,78.8,14.3z M78.8,29c-3.4,0-5.3-2.6-5.3-5.7c0-3.1,1.8-5.7,5.3-5.7s5.2,2.6,5.2,5.7
			C84,26.4,82.2,29,78.8,29z M148.5,31.9l2-0.4v-3.3l-2.2,0.4c-1.1,0-1.8-0.7-1.8-1.8V18h3.6v-3.3h-3.6V11H143v15.8
			C143,30.1,144.9,31.9,148.5,31.9z M178.7,18v-3.3c-0.7-0.4-1.1-0.4-1.8-0.4c-1.4,0-2.9,0.7-4,2.2l-0.2,0.2l-0.2-0.2l-0.4-1.8H169
			v17.2h3.6v-10c0.1-2.1,1.8-3.9,4-3.9H178.7z M198.3,14.3c-1.4,0-3.2,0.7-4.1,1.8l-0.9,1.1c-0.9-1.8-2.8-2.9-5.4-2.9
			c-1.4,0-3.2,0.7-4,1.8l-0.2,0.2l-0.2-0.2l-0.4-1.5h-3.2v17.2h3.6V21.5c0.1-2.1,1.8-3.9,4-3.9c1.8,0,2.9,1.1,2.9,3.3v11h3.6V21.5
			c0.1-2.1,1.8-3.9,4-3.9c1.8,0,2.9,1.1,2.9,3.3v11h3.6V20.6C204.4,16.9,202.2,14.3,198.3,14.3z M159.3,14.3c-4.7,0-8.3,3.7-8.3,9
			c0,5.3,3.8,9,8.3,9c3.3,0,5.7-1.7,7.2-4.1l-2.6-1.7c-0.2,0.4-1,1.6-2.6,2.1c0,0,0,0,0,0c-0.1,0-0.2,0.1-0.3,0.1
			c-0.1,0-0.2,0.1-0.3,0.1c0,0-0.1,0-0.1,0c-0.1,0-0.3,0-0.4,0.1c0,0-0.1,0-0.1,0c-0.2,0-0.3,0-0.5,0c-3.1,0-4.9-2.2-4.9-4.8h12.2
			l0.4-1.1C167.3,17.8,163.7,14.3,159.3,14.3z M154.8,21c0.5-1.9,2-3.4,4.5-3.4c2.2,0,4,1.5,4.1,3.4H154.8z M97.4,14.3
			c-4.7,0-8.3,3.7-8.3,9c0,5.3,3.8,9,8.3,9c3.3,0,5.7-1.7,7.2-4.1l-2.6-1.7c-0.2,0.4-1,1.6-2.6,2.1c0,0,0,0,0,0
			c-0.1,0-0.2,0.1-0.3,0.1c-0.1,0-0.2,0.1-0.3,0.1c0,0-0.1,0-0.1,0c-0.1,0-0.3,0-0.4,0.1c0,0-0.1,0-0.1,0c-0.2,0-0.3,0-0.5,0
			c-3.1,0-4.9-2.2-4.9-4.8h12.2l0.4-1.1C105.3,17.8,101.7,14.3,97.4,14.3z M92.9,21c0.5-1.9,2-3.4,4.5-3.4c2.2,0,4,1.5,4.1,3.4H92.9
			z M25,0C18.3,0,12,2.6,7.3,7.3C2.6,12.1,0,18.3,0,25v25h1.3V25c0-6.3,2.5-12.3,6.9-16.8c4.5-4.5,10.4-7,16.8-7s12.3,2.5,16.8,7
			c4.5,4.5,6.9,10.4,6.9,16.8c0,6.3-2.5,12.3-6.9,16.8c-4.5,4.5-10.4,7-16.8,7h-6.3v-3.1H25c5.5,0,10.7-2.1,14.6-6
			c3.9-3.9,6-9.1,6-14.6c0-5.5-2.1-10.7-6-14.6C35.7,6.5,30.5,4.3,25,4.3s-10.7,2.2-14.6,6.1c-3.9,3.9-6,9.1-6,14.6v25h1.3V25
			c0-5.2,2-10,5.7-13.7C15,7.7,19.8,5.6,25,5.6s10,2,13.7,5.7c3.7,3.7,5.7,8.5,5.7,13.7c0,5.2-2,10-5.7,13.7
			c-3.7,3.7-8.5,5.7-13.7,5.7h-6.3v-3.1H25c9,0,16.3-7.3,16.3-16.3C41.3,16,34,8.7,25,8.7S8.7,16,8.7,25v25H10V25
			C10,16.7,16.7,10,25,10S40,16.7,40,25c0,8.3-6.7,15-15,15h-6.3V37H25c6.6,0,12-5.3,12-11.9c0-6.6-5.4-12-12-12s-12,5.4-12,12v25
			h1.3V25c0-5.9,4.8-10.7,10.7-10.7c5.9,0,10.7,4.8,10.7,10.7c0,5.9-4.8,10.7-10.7,10.7h-6.3v-3.1H25c4.2,0,7.6-3.4,7.6-7.6
			c0-4.2-3.4-7.6-7.6-7.6c-4.2,0-7.6,3.4-7.6,7.6v25H25c6.7,0,13-2.6,17.7-7.3C47.4,38,50,31.7,50,25s-2.6-13-7.3-17.7
			C38,2.6,31.7,0,25,0z M18.7,25c0-3.5,2.8-6.4,6.3-6.4s6.3,2.9,6.3,6.4c0,3.5-2.8,6.3-6.3,6.3h-6.3V25z"/>
	</g>
</g>
</svg>
